<?xml version="1.0" encoding="UTF-8" standalone="no"?>
<!-- Created with Inkscape (http://www.inkscape.org/) -->

<svg
    xmlns:dc="http://purl.org/dc/elements/1.1/"
    xmlns:cc="http://creativecommons.org/ns#"
    xmlns:rdf="http://www.w3.org/1999/02/22-rdf-syntax-ns#"
    xmlns:svg="http://www.w3.org/2000/svg"
    xmlns="http://www.w3.org/2000/svg"
    xmlns:sodipodi="http://sodipodi.sourceforge.net/DTD/sodipodi-0.dtd"
    xmlns:inkscape="http://www.inkscape.org/namespaces/inkscape"
    id="zanoCaptureLife"
    version="1.1"
    inkscape:version="0.91 r13725"
    xml:space="preserve"
    width="2435.4375"
    height="1385.4375"
    viewBox="0 0 2435.4375 1385.4375"
    sodipodi:docname="logo.svg"><defs
       id="defs" /><title
       id="title">Zano - Capture Life</title><metadata
       id="metadata"><rdf:RDF><cc:Work
             rdf:about=""><dc:format>image/svg+xml</dc:format><dc:type
                rdf:resource="http://purl.org/dc/dcmitype/StillImage" /><dc:title>Zano - Capture Life</dc:title></cc:Work></rdf:RDF></metadata><sodipodi:namedview
       pagecolor="#ffffff"
       bordercolor="#000000"
       borderopacity="1"
       objecttolerance="10"
       gridtolerance="10"
       guidetolerance="10"
       inkscape:pageopacity="0"
       inkscape:pageshadow="2"
       inkscape:window-width="1920"
       inkscape:window-height="1137"
       id="namedView0"
       showgrid="false"
       inkscape:zoom="0.35355339"
       inkscape:cx="1446.841"
       inkscape:cy="658.46154"
       inkscape:window-x="-8"
       inkscape:window-y="-8"
       inkscape:window-maximized="1"
       inkscape:current-layer="lBackground"
       inkscape:showpageshadow="false"
       showborder="true"
       borderlayer="false" /><g
       inkscape:groupmode="layer"
       id="lBackground"
       inkscape:label="Background"
       style="display:inline"><rect
          id="pBackground"
          x="0"
          y="0"
          width="2435.4375"
          height="1385.4375"
          style="fill:#26292b" /></g><g
       inkscape:groupmode="layer"
       id="lCaptureLife"
       inkscape:label="Capture life"
       style="display:inline"><path
          inkscape:connector-curvature="0"
          id="pCaptureLife0_C"
          style="fill:#ffffff;fill-opacity:1;fill-rule:nonzero;stroke:none"
          d="m 794,846.84137 c -2.78375,-1.99875 -6.08875,-3 -9.91375,-3 -4.17375,0 -7.585,1.305 -10.23875,3.9125 -2.65,2.6075 -3.97625,5.97875 -3.97625,10.1075 0,4.6525 1.41125,8.37125 4.23875,11.1525 2.82625,2.78375 6.5875,4.175 11.2825,4.175 2.8225,0 5.975,-0.67625 9.4525,-2.02375 l 1.50125,6.9125 c -1.08625,0.4775 -2.12,0.89125 -3.09625,1.23875 -0.98,0.35 -1.91375,0.6325 -2.805,0.84875 -0.8925,0.21625 -1.925,0.38875 -3.09625,0.52 -1.175,0.13125 -2.4125,0.19875 -3.71875,0.19875 -3.34625,0 -6.2725,-0.43625 -8.77,-1.30625 -2.50125,-0.87 -4.83625,-2.27125 -7.0125,-4.20625 -2.1725,-1.935 -3.8875,-4.4125 -5.15125,-7.43375 -1.25875,-3.02125 -1.88875,-6.22625 -1.88875,-9.61875 0,-6.4325 2.10875,-11.725 6.325,-15.87875 4.21375,-4.15 9.71625,-6.22625 16.4975,-6.22625 5.34625,0 9.84625,1.36875 13.4975,4.1075 l -3.1275,6.52 z" /><path
          inkscape:connector-curvature="0"
          id="pCaptureLife1_A"
          style="fill:#ffffff;fill-opacity:1;fill-rule:nonzero;stroke:none"
          d="m 851.969,846.9015 -4.93875,15.53125 9.9625,-0.006 -5.02375,-15.525 z m 10.63125,33.1325 -3.38875,-10.6275 -14.41375,0 -3.52,10.6275 -8.60875,0 15.585,-42.975 7.37,0 15.58375,42.975 -8.6075,0 z" /><path
          inkscape:connector-curvature="0"
          id="pCaptureLife2_P"
          style="fill:#ffffff;fill-opacity:1;fill-rule:nonzero;stroke:none"
          d="m 927.68062,844.03938 -5.73875,0 0,14.27875 1.04375,0 1.04375,0 1.82625,0 c 3.1725,0 5.50125,-0.5975 6.97625,-1.8 1.47875,-1.2 2.21875,-3.11 2.21875,-5.725 0,-4.50375 -2.45625,-6.75375 -7.37,-6.75375 m 10.9575,17.7425 c -2.9125,2.47375 -7.15375,3.71125 -12.71625,3.71125 -1.21625,0 -2.54375,-0.0675 -3.98,-0.1975 l 0,14.73875 -8.215,0 0,-42.975 14.73875,0 c 2.82375,0 5.095,0.26125 6.815,0.78125 1.715,0.52 3.52,1.7125 5.4125,3.5775 1.88875,1.8675 2.83375,4.79375 2.83375,8.78375 0,4.94625 -1.6275,8.80625 -4.88875,11.58" /><path
          inkscape:connector-curvature="0"
          id="pCaptureLife3_T"
          style="fill:#ffffff;fill-opacity:1;fill-rule:nonzero;stroke:none"
          d="m 1000.976,844.03938 0,35.995 -8.215,0 0,-35.995 -12.91375,0 0,-6.98 34.04255,0 0,6.98 -12.9138,0 z" /><path
          inkscape:connector-curvature="0"
          id="pCaptureLife4_U"
          style="fill:#ffffff;fill-opacity:1;fill-rule:nonzero;stroke:none"
          d="m 1085.9499,877.75575 c -3.0462,2.08375 -7.0862,3.1275 -12.1312,3.1275 -2.7388,0 -5.0313,-0.24 -6.8775,-0.71875 -1.8513,-0.4775 -3.7513,-1.37625 -5.7075,-2.7025 -1.9563,-1.3225 -3.3575,-3.04625 -4.2063,-5.17625 -0.8487,-2.12625 -1.27,-5.14375 -1.27,-9.05 l 0,-26.17625 8.1513,0 0,26.6225 c 0,6.3825 3.3887,9.57 10.1712,9.57 3.085,0 5.4563,-0.825 7.1075,-2.4725 1.6525,-1.64875 2.4775,-4.01625 2.4775,-7.0975 l 0,-26.6225 8.2188,0 0,26.17625 c 0,3.995 -0.415,7.0125 -1.2388,9.05 -0.8275,2.04125 -2.3912,3.86375 -4.695,5.47" /><path
          inkscape:connector-curvature="0"
          id="pCaptureLife5_R"
          style="fill:#ffffff;fill-opacity:1;fill-rule:nonzero;stroke:none"
          d="m 1152.5939,844.03938 -5.3487,0 0,11.8025 5.3487,0 c 4.9988,0 7.4963,-2.03375 7.4963,-6.09625 0,-2.03375 -0.5763,-3.49125 -1.7263,-4.38 -1.1525,-0.88375 -3.0775,-1.32625 -5.77,-1.32625 m 8.6288,35.98125 -9.885,-17.19125 -4.0925,-0.0113 0,17.21625 -8.2163,0 0,-42.975 14.3463,0 c 3.2162,0 5.64,0.21875 7.2712,0.65125 1.6313,0.435 3.3575,1.50625 5.1825,3.21875 1.83,1.7125 2.7425,4.585 2.7425,8.61875 0,3.29375 -0.5987,5.735 -1.7937,7.31625 -1.1963,1.58125 -2.25,2.64625 -3.1625,3.1875 -0.9138,0.54125 -2.2825,1.05125 -4.1088,1.52875 l 10.6925,18.45375 -8.9762,-0.0138 z" /><path
          inkscape:connector-curvature="0"
          id="pCaptureLife6_E"
          style="fill:#ffffff;fill-opacity:1;fill-rule:nonzero;stroke:none"
          d="m 1213.6301,880.03425 0,-42.975 26.2163,0 0,6.98 -18.0013,0 0,10.56375 14.7388,0 0,6.9775 -14.7388,0 0,11.4775 18.8425,0 0,6.97625 -27.0575,0 z" /><path
          inkscape:connector-curvature="0"
          id="pCaptureLife7_L"
          style="fill:#ffffff;fill-opacity:1;fill-rule:nonzero;stroke:none"
          d="m 1338.1158,880.03425 0,-42.975 8.215,0 0,35.99875 17.605,0 0,6.97625 -25.82,0 z" /><path
          d="m 1406.7163,837.05875 8.2149,0 0,42.975 -8.2149,0 0,-42.975 z"
          style="fill:#ffffff;fill-opacity:1;fill-rule:nonzero;stroke:none"
          id="pCaptureLife8_I"
          inkscape:connector-curvature="0" /><path
          inkscape:connector-curvature="0"
          id="pCaptureLife9_F"
          style="fill:#ffffff;fill-opacity:1;fill-rule:nonzero;stroke:none"
          d="m 1471.2055,844.03938 0,10.95375 15.135,0 0,6.97625 -15.135,0 0,18.065 -8.215,0 0,-42.975 26.6763,0 0,6.98 -18.4613,0 z" /><path
          inkscape:connector-curvature="0"
          id="pCaptureLife10_E"
          style="fill:#ffffff;fill-opacity:1;fill-rule:nonzero;stroke:none"
          d="m 1527.027,880.03425 0,-42.975 26.2163,0 0,6.98 -18.0013,0 0,10.56375 14.7388,0 0,6.9775 -14.7388,0 0,11.4775 18.85,0 0,6.97625 -27.065,0 z" /></g><g
       inkscape:groupmode="layer"
       id="lTopRightSign"
       inkscape:label="Top right sign"
       style="display:inline"><path
          inkscape:connector-curvature="0"
          id="pTopRightSign"
          style="display:inline;fill:#fbbb00;fill-opacity:1;fill-rule:nonzero;stroke:none"
          d="m 1577.5658,596.82662 68.7137,0 -51.22,-78.0625 -51.2163,78.0625 17.7012,0 33.5,-51.0325 23.3964,35.9025 -30.4663,0 -10.4087,15.13 z" /></g><g
       inkscape:groupmode="layer"
       id="lZano"
       inkscape:label="Zano"
       style="display:inline"><path
          style="fill:#fbbb00;fill-opacity:1;fill-rule:evenodd;stroke:none;stroke-width:1px;stroke-linecap:butt;stroke-linejoin:miter;stroke-opacity:1"
          d="m 1170.7734,586.44922 0,170.70117 -111.9257,-170.58789 -122.08598,186.07422 -117.27734,0 126.89453,-176.51172 -164.51368,-0.002 0,28.75195 107.83399,0 -125.67969,177.37109 187.53711,0 107.26956,-163.42578 87.1738,133.79883 -116.2969,0 -20.3906,29.62305 191.3437,0 0,-144.42969 161.0157,154.64453 0,-80.25195 c 13.7096,46.39442 56.6338,80.25195 107.4726,80.25195 61.8887,0 112.0606,-50.16984 112.0606,-112.05859 0,-61.88875 -50.1719,-112.06055 -112.0606,-112.06055 -50.839,0 -93.7632,33.85849 -107.4726,80.25391 l 0,-73.30274 -29.6094,0 0,146.76953 -161.2891,-155.60937 z m 298.3711,32.52148 c 44.9712,0 81.4278,36.45649 81.4278,81.42774 0,44.97125 -36.4566,81.42773 -81.4278,81.42773 -44.9712,0 -81.4277,-36.45648 -81.4277,-81.42773 0,-44.97125 36.4565,-81.42774 81.4277,-81.42774 z"
          id="pZano"
          inkscape:connector-curvature="0" /></g></svg>